<?xml version="1.0" encoding="UTF-8"?>
<svg id="Layer_2" xmlns="http://www.w3.org/2000/svg" viewBox="0 0 1800 599.62">
  <defs>
    <style>
      .cls-1, .cls-2 {
        fill: #fff;
      }

      .cls-2 {
        opacity: .4;
      }
    </style>
  </defs>
  <g id="Layer_1-2" data-name="Layer_1">
    <g>
      <path class="cls-2" d="M242.01,481.12c-2.95,0-5.81-1.53-7.39-4.27-2.35-4.08-.96-9.29,3.12-11.65l196.68-113.55v-222.19L242.01,18.37,45.32,131.93c-4.08,2.36-9.29.96-11.65-3.12-2.35-4.08-.96-9.29,3.12-11.65L237.74,1.14c2.64-1.52,5.89-1.52,8.53,0l200.95,116.02c2.64,1.52,4.26,4.34,4.26,7.39v232.03c0,3.05-1.63,5.86-4.26,7.39l-200.95,116.02c-1.34.77-2.81,1.14-4.26,1.14Z"/>
      <path class="cls-1" d="M539.08,387.7V75.68h99.51c19.16,0,35.67,1.89,49.54,5.66,13.86,3.78,25.26,9.14,34.19,16.11,8.93,6.97,15.53,15.5,19.81,25.58,4.28,10.09,6.42,21.45,6.42,34.08,0,7.7-1.2,15.1-3.59,22.21-2.4,7.11-6.03,13.72-10.89,19.81-4.87,6.1-10.96,11.54-18.29,16.33-7.33,4.79-15.93,8.71-25.8,11.76,22.79,4.5,39.99,12.7,51.6,24.6,11.61,11.9,17.42,27.58,17.42,47.03,0,13.21-2.43,25.26-7.29,36.14-4.87,10.89-11.98,20.25-21.34,28.09-9.36,7.84-20.83,13.9-34.4,18.18-13.58,4.28-29.07,6.42-46.49,6.42h-110.39ZM581.32,215.47h55.74c11.9,0,22.21-1.31,30.92-3.92,8.71-2.61,15.93-6.24,21.67-10.89,5.73-4.64,9.98-10.27,12.74-16.88,2.76-6.6,4.14-13.83,4.14-21.67,0-18.29-5.52-31.72-16.55-40.28-11.03-8.56-28.16-12.85-51.39-12.85h-57.27v106.48ZM581.32,245.51v108.65h67.5c12.05,0,22.39-1.38,31.03-4.14,8.63-2.76,15.75-6.64,21.34-11.65,5.59-5.01,9.69-10.96,12.3-17.85,2.61-6.89,3.92-14.48,3.92-22.75,0-16.11-5.7-28.85-17.09-38.21-11.4-9.36-28.63-14.04-51.71-14.04h-67.28ZM1097.14,387.7h-32.66c-3.78,0-6.82-.94-9.14-2.83-2.32-1.89-4.07-4.28-5.23-7.19l-29.18-75.34h-140.01l-29.18,75.34c-1.02,2.61-2.76,4.94-5.23,6.97-2.47,2.03-5.52,3.05-9.15,3.05h-32.66l124.76-312.02h42.89l124.76,312.02ZM892.68,271.86h116.49l-48.99-126.94c-3.19-7.84-6.31-17.64-9.36-29.39-1.6,5.95-3.16,11.43-4.68,16.44-1.52,5.01-3.01,9.4-4.46,13.17l-48.99,126.73ZM1337.74,124.45c-1.31,2.18-2.69,3.81-4.14,4.9-1.45,1.09-3.34,1.63-5.66,1.63-2.47,0-5.33-1.23-8.6-3.7-3.27-2.47-7.4-5.19-12.41-8.17-5.01-2.97-11.03-5.7-18.07-8.17-7.04-2.47-15.57-3.7-25.58-3.7-9.44,0-17.78,1.27-25.04,3.81-7.26,2.54-13.32,5.99-18.18,10.34-4.86,4.35-8.53,9.47-11,15.35-2.47,5.88-3.7,12.23-3.7,19.05,0,8.71,2.14,15.93,6.42,21.67,4.28,5.74,9.94,10.64,16.98,14.7,7.04,4.07,15.02,7.59,23.95,10.56,8.93,2.98,18.07,6.06,27.44,9.25,9.36,3.19,18.51,6.79,27.43,10.78,8.93,3.99,16.91,9.04,23.95,15.13,7.04,6.1,12.7,13.57,16.98,22.43,4.28,8.86,6.42,19.74,6.42,32.66,0,13.65-2.32,26.46-6.97,38.43-4.65,11.98-11.43,22.39-20.36,31.25-8.93,8.86-19.89,15.82-32.88,20.9-12.99,5.08-27.76,7.62-44.31,7.62-20.18,0-38.58-3.66-55.2-11-16.62-7.33-30.81-17.24-42.57-29.72l12.19-20.03c1.16-1.6,2.58-2.94,4.25-4.03,1.67-1.09,3.52-1.63,5.55-1.63,3.05,0,6.53,1.63,10.45,4.9,3.92,3.27,8.82,6.86,14.7,10.78,5.88,3.92,12.99,7.51,21.34,10.78,8.35,3.27,18.54,4.9,30.59,4.9,10.02,0,18.94-1.38,26.78-4.14,7.84-2.76,14.48-6.64,19.92-11.65,5.44-5.01,9.61-11,12.52-17.96,2.9-6.97,4.35-14.73,4.35-23.3,0-9.43-2.14-17.16-6.42-23.19-4.28-6.02-9.91-11.07-16.87-15.13-6.97-4.06-14.92-7.51-23.84-10.34-8.93-2.83-18.07-5.73-27.43-8.71-9.36-2.97-18.51-6.42-27.44-10.34-8.93-3.92-16.88-9-23.84-15.24-6.97-6.24-12.59-14.04-16.88-23.41-4.28-9.36-6.42-20.94-6.42-34.73,0-11.03,2.14-21.7,6.42-32.01,4.28-10.31,10.49-19.45,18.62-27.44,8.13-7.98,18.18-14.37,30.16-19.16,11.98-4.79,25.73-7.19,41.26-7.19,17.42,0,33.32,2.76,47.69,8.27,14.37,5.52,26.92,13.5,37.67,23.95l-10.23,20.03ZM1495.82,387.7h-42.24V75.68h42.24v312.02ZM1782.8,124.45c-1.31,2.18-2.69,3.81-4.14,4.9-1.45,1.09-3.34,1.63-5.66,1.63-2.47,0-5.33-1.23-8.6-3.7-3.27-2.47-7.4-5.19-12.41-8.17-5.01-2.97-11.03-5.7-18.07-8.17-7.04-2.47-15.57-3.7-25.58-3.7-9.44,0-17.78,1.27-25.04,3.81-7.26,2.54-13.32,5.99-18.18,10.34-4.86,4.35-8.53,9.47-11,15.35-2.47,5.88-3.7,12.23-3.7,19.05,0,8.71,2.14,15.93,6.42,21.67,4.28,5.74,9.94,10.64,16.98,14.7,7.04,4.07,15.02,7.59,23.95,10.56,8.93,2.98,18.07,6.06,27.44,9.25,9.36,3.19,18.51,6.79,27.43,10.78,8.93,3.99,16.91,9.04,23.95,15.13,7.04,6.1,12.7,13.57,16.98,22.43,4.28,8.86,6.42,19.74,6.42,32.66,0,13.65-2.32,26.46-6.97,38.43-4.65,11.98-11.43,22.39-20.36,31.25-8.93,8.86-19.89,15.82-32.88,20.9-12.99,5.08-27.76,7.62-44.31,7.62-20.18,0-38.58-3.66-55.2-11-16.62-7.33-30.81-17.24-42.57-29.72l12.19-20.03c1.16-1.6,2.58-2.94,4.25-4.03,1.67-1.09,3.52-1.63,5.55-1.63,3.05,0,6.53,1.63,10.45,4.9,3.92,3.27,8.82,6.86,14.7,10.78,5.88,3.92,12.99,7.51,21.34,10.78,8.35,3.27,18.54,4.9,30.59,4.9,10.02,0,18.94-1.38,26.78-4.14,7.84-2.76,14.48-6.64,19.92-11.65,5.44-5.01,9.61-11,12.52-17.96,2.9-6.97,4.35-14.73,4.35-23.3,0-9.43-2.14-17.16-6.42-23.19-4.28-6.02-9.91-11.07-16.87-15.13-6.97-4.06-14.92-7.51-23.84-10.34-8.93-2.83-18.07-5.73-27.43-8.71-9.36-2.97-18.51-6.42-27.44-10.34-8.93-3.92-16.88-9-23.84-15.24-6.97-6.24-12.59-14.04-16.88-23.41-4.28-9.36-6.42-20.94-6.42-34.73,0-11.03,2.14-21.7,6.42-32.01,4.28-10.31,10.49-19.45,18.62-27.44,8.13-7.98,18.18-14.37,30.16-19.16,11.98-4.79,25.73-7.19,41.26-7.19,17.42,0,33.32,2.76,47.69,8.27,14.37,5.52,26.92,13.5,37.67,23.95l-10.23,20.03Z"/>
      <path class="cls-1" d="M583.89,548.22h-19.38v49.49h-25.56v-132.46h44.4c7.34,0,13.98.86,19.92,2.59,5.94,1.73,11.02,4.26,15.24,7.6,4.21,3.34,7.46,7.49,9.73,12.46,2.27,4.97,3.41,10.74,3.41,17.29,0,4.73-.56,8.99-1.68,12.78-1.12,3.79-2.73,7.19-4.82,10.19-2.09,3-4.61,5.63-7.55,7.87-2.94,2.24-6.23,4.18-9.87,5.82l28.48,54.68v1.18h-27.38l-24.93-49.49ZM564.51,527.48h18.92c7.22,0,12.78-1.83,16.69-5.5,3.91-3.67,5.87-8.69,5.87-15.06s-1.91-11.75-5.73-15.42c-3.82-3.67-9.46-5.5-16.92-5.5h-18.83v41.49ZM761.82,541.22c0,8.49-1.12,16.32-3.37,23.47-2.25,7.16-5.49,13.31-9.74,18.47-4.25,5.16-9.42,9.18-15.51,12.06-6.1,2.88-12.96,4.32-20.61,4.32s-14.44-1.44-20.38-4.32c-5.94-2.88-10.95-6.92-15.01-12.1-4.06-5.19-7.16-11.34-9.28-18.47-2.12-7.13-3.18-14.93-3.18-23.43v-19.29c0-8.49,1.06-16.32,3.18-23.47,2.12-7.16,5.22-13.33,9.28-18.51,4.06-5.19,9.05-9.23,14.97-12.14,5.91-2.91,12.69-4.37,20.33-4.37s14.6,1.46,20.7,4.37c6.1,2.91,11.27,6.96,15.51,12.14,4.25,5.19,7.49,11.36,9.74,18.51,2.24,7.16,3.37,14.98,3.37,23.47v19.29ZM735.89,521.75c0-5.4-.44-10.37-1.32-14.92-.88-4.55-2.26-8.46-4.14-11.74-1.88-3.27-4.29-5.84-7.23-7.69-2.94-1.85-6.5-2.78-10.69-2.78s-7.58.93-10.37,2.78c-2.79,1.85-5.04,4.41-6.73,7.69-1.7,3.27-2.91,7.19-3.64,11.74-.73,4.55-1.09,9.52-1.09,14.92v19.47c0,5.34.36,10.28,1.09,14.83.73,4.55,1.94,8.49,3.64,11.83,1.7,3.34,3.94,5.94,6.73,7.82,2.79,1.88,6.28,2.82,10.46,2.82s7.66-.94,10.6-2.82c2.94-1.88,5.34-4.47,7.19-7.78,1.85-3.31,3.23-7.23,4.14-11.78.91-4.55,1.36-9.52,1.36-14.92v-19.47ZM799.65,597.71v-132.46h44.49c7.22,0,13.78.73,19.7,2.18,5.91,1.46,10.96,3.67,15.15,6.64,4.19,2.97,7.41,6.73,9.69,11.28,2.27,4.55,3.41,9.92,3.41,16.1-.06,6.19-1.71,11.74-4.96,16.65-3.25,4.91-8.02,8.64-14.33,11.19,3.82.97,7.13,2.43,9.92,4.37,2.79,1.94,5.11,4.23,6.96,6.87,1.85,2.64,3.21,5.52,4.09,8.64.88,3.12,1.32,6.35,1.32,9.69,0,6.37-1.09,11.98-3.28,16.83-2.18,4.85-5.31,8.92-9.37,12.19-4.06,3.27-9.01,5.73-14.83,7.37-5.82,1.64-12.37,2.46-19.65,2.46h-48.31ZM825.31,520.84h19.01c7.1-.06,12.56-1.55,16.38-4.46,3.82-2.91,5.76-7.19,5.82-12.83,0-6.19-1.91-10.63-5.73-13.33-3.82-2.7-9.34-4.08-16.56-4.14h-18.92v34.75ZM825.31,539.31v37.76h22.74c6.97-.06,12.3-1.77,15.97-5.14,3.67-3.37,5.5-7.78,5.5-13.24.06-6.06-1.58-10.8-4.91-14.19-3.34-3.4-8.49-5.12-15.47-5.19h-23.84ZM1024.57,541.22c0,8.49-1.12,16.32-3.37,23.47-2.25,7.16-5.49,13.31-9.74,18.47-4.25,5.16-9.42,9.18-15.51,12.06-6.1,2.88-12.96,4.32-20.61,4.32s-14.44-1.44-20.38-4.32c-5.94-2.88-10.95-6.92-15.01-12.1-4.06-5.19-7.16-11.34-9.28-18.47-2.12-7.13-3.18-14.93-3.18-23.43v-19.29c0-8.49,1.06-16.32,3.18-23.47,2.12-7.16,5.22-13.33,9.28-18.51,4.06-5.19,9.05-9.23,14.97-12.14,5.91-2.91,12.69-4.37,20.33-4.37s14.6,1.46,20.7,4.37c6.1,2.91,11.27,6.96,15.51,12.14,4.25,5.19,7.49,11.36,9.74,18.51,2.24,7.16,3.37,14.98,3.37,23.47v19.29ZM998.64,521.75c0-5.4-.44-10.37-1.32-14.92-.88-4.55-2.26-8.46-4.14-11.74s-4.29-5.84-7.23-7.69c-2.94-1.85-6.5-2.78-10.69-2.78s-7.58.93-10.37,2.78c-2.79,1.85-5.04,4.41-6.73,7.69-1.7,3.27-2.91,7.19-3.64,11.74s-1.09,9.52-1.09,14.92v19.47c0,5.34.36,10.28,1.09,14.83s1.94,8.49,3.64,11.83c1.7,3.34,3.94,5.94,6.73,7.82,2.79,1.88,6.28,2.82,10.46,2.82s7.66-.94,10.6-2.82c2.94-1.88,5.34-4.47,7.19-7.78,1.85-3.31,3.23-7.23,4.14-11.78.91-4.55,1.36-9.52,1.36-14.92v-19.47ZM1156.2,486.08h-40.85v111.63h-25.66v-111.63h-40.3v-20.83h106.81v20.83ZM1191.21,465.25h76.6v20.65h-25.84v91.25h25.84v20.56h-76.6v-20.56h25.2v-91.25h-25.2v-20.65ZM1404.27,556.23c-.42,6.67-1.86,12.68-4.32,18.01-2.46,5.34-5.75,9.89-9.87,13.65-4.13,3.76-9.04,6.66-14.74,8.69-5.7,2.03-12.01,3.05-18.92,3.05-7.82,0-14.77-1.44-20.83-4.32-6.07-2.88-11.16-6.91-15.28-12.1-4.13-5.19-7.28-11.42-9.46-18.7-2.18-7.28-3.28-15.28-3.28-24.02v-17.83c0-8.79,1.15-16.83,3.46-24.11,2.3-7.28,5.58-13.52,9.83-18.74,4.25-5.22,9.39-9.26,15.42-12.14,6.03-2.88,12.81-4.32,20.33-4.32s13.75,1.03,19.42,3.09c5.67,2.06,10.51,5,14.51,8.83,4,3.82,7.16,8.49,9.46,14.01,2.3,5.52,3.76,11.74,4.37,18.65h-25.47c-.24-3.94-.83-7.4-1.77-10.37-.94-2.97-2.31-5.44-4.09-7.41-1.79-1.97-4.03-3.46-6.73-4.46-2.7-1-5.93-1.5-9.69-1.5s-7.37.85-10.28,2.55c-2.91,1.7-5.32,4.18-7.23,7.46-1.91,3.27-3.32,7.29-4.23,12.05-.91,4.76-1.36,10.18-1.36,16.24v18.01c0,13.04,1.83,22.68,5.5,28.93,3.67,6.25,9.48,9.37,17.42,9.37,6.67,0,11.95-1.77,15.83-5.32,3.88-3.55,6.03-9.29,6.46-17.24h25.56ZM1511.51,563.14c0-2.37-.41-4.58-1.23-6.64-.82-2.06-2.21-3.99-4.18-5.78-1.97-1.79-4.55-3.43-7.73-4.91-3.18-1.49-7.14-2.87-11.87-4.14-5.76-1.58-11.27-3.55-16.51-5.91-5.25-2.37-9.87-5.22-13.87-8.55-4-3.33-7.2-7.22-9.6-11.65-2.4-4.43-3.59-9.52-3.59-15.28s1.18-10.64,3.55-15.19c2.37-4.55,5.64-8.43,9.83-11.64,4.18-3.21,9.13-5.69,14.83-7.41,5.7-1.73,11.89-2.59,18.56-2.59s13.24,1,18.97,3c5.73,2,10.66,4.81,14.78,8.42,4.12,3.61,7.34,7.9,9.64,12.87,2.3,4.97,3.46,10.43,3.46,16.38h-24.93c-.12-2.97-.65-5.7-1.59-8.19-.94-2.49-2.33-4.63-4.18-6.41-1.85-1.79-4.16-3.18-6.91-4.18-2.76-1-5.99-1.5-9.69-1.5-3.4,0-6.41.41-9.05,1.23-2.64.82-4.87,1.97-6.69,3.46-1.82,1.49-3.2,3.24-4.14,5.28-.94,2.03-1.41,4.23-1.41,6.6,0,2.49.62,4.73,1.87,6.73,1.24,2,3.05,3.81,5.41,5.41,2.37,1.61,5.23,3.08,8.6,4.41,3.37,1.34,7.17,2.58,11.42,3.73,6.06,1.76,11.65,3.91,16.74,6.46,5.09,2.55,9.48,5.57,13.15,9.05,3.67,3.49,6.52,7.46,8.55,11.92,2.03,4.46,3.05,9.42,3.05,14.87,0,5.82-1.17,10.99-3.5,15.51-2.33,4.52-5.57,8.34-9.69,11.46-4.13,3.12-9.04,5.49-14.74,7.1-5.7,1.61-11.92,2.41-18.65,2.41-4.18,0-8.36-.38-12.51-1.14-4.16-.76-8.13-1.92-11.92-3.5-3.79-1.58-7.32-3.55-10.6-5.91-3.27-2.37-6.11-5.12-8.51-8.28-2.4-3.15-4.28-6.73-5.64-10.74-1.36-4-2.05-8.43-2.05-13.28h25.11c.12,4,.82,7.43,2.09,10.28,1.27,2.85,3.05,5.19,5.32,7.01s5,3.15,8.19,4c3.18.85,6.69,1.27,10.51,1.27,3.4,0,6.41-.39,9.05-1.18,2.64-.79,4.87-1.88,6.69-3.27,1.82-1.39,3.21-3.08,4.18-5.05.97-1.97,1.46-4.14,1.46-6.5Z"/>
      <path class="cls-1" d="M215.22,439.89l-144.3-83.31,144.3-83.31,13.32,23.06,66.9-86.34-108.22,14.77,13.08,22.65-144.3,83.31v-166.62h26.63L41.32,63,0,164.11h26.16v192.47c0,5.52,3.01,10.33,7.47,12.91h0s166.68,96.24,166.68,96.24l-13.32,23.06,108.22,14.77-66.9-86.34-13.08,22.65Z"/>
    </g>
  </g>
</svg>